#define closehover_width 10
#define closehover_height 10
static char closehover_bits[] = {
  0xFF, 0x03, 0xFF, 0x03, 0x7B, 0x03, 0xB7, 0x03, 0xCF, 0x03, 0xCF, 0x03, 
  0xB7, 0x03, 0x7B, 0x03, 0xFF, 0x03, 0xFF, 0x03, };
