#define close_width 10
#define close_height 10
static unsigned char close_bits[] = {
 0xFF, 0x03, 0x01, 0x02, 0x85, 0x02, 0x49, 0x02, 0x31, 0x02, 0x31, 0x02,
 0x49, 0x02, 0x85, 0x02, 0x01, 0x02, 0xFF, 0x03 };
