#define _width 30
#define _height 20
static char _bits[] = {
 0x00,0xf8,0xff,0x3f,0x00,0xfe,0xff,0x3f,0x80,0x07,0x00,0x20,0xc0,0x01,0x00,
 0x20,0x60,0x00,0x00,0x20,0x30,0x00,0x00,0x20,0x18,0x00,0x00,0x20,0x0c,0x00,
 0x00,0x20,0x0c,0x00,0x00,0x20,0x06,0x00,0x00,0x20,0x06,0x00,0x00,0x20,0x03,
 0x00,0x00,0x20,0x03,0x00,0x00,0x20,0x03,0x00,0x00,0x20,0x03,0x00,0x00,0x20,
 0x03,0x00,0x00,0x20,0x03,0x00,0x00,0x20,0x03,0x00,0x00,0x20,0xff,0xff,0xff,
 0x3f,0xff,0xff,0xff,0x3f };
