#define _width 30
#define _height 20
static char _bits[] = {
 0xff,0xff,0xff,0x3f,0xff,0xff,0xff,0x3f,0x01,0x00,0x00,0x20,0x01,0x00,0x00,
 0x20,0x01,0x00,0x00,0x20,0x01,0x00,0x00,0x20,0x01,0x00,0x00,0x20,0x01,0x00,
 0x00,0x20,0x01,0x00,0x00,0x20,0x01,0x00,0x00,0x20,0x01,0x00,0x00,0x20,0x01,
 0x00,0x00,0x20,0x01,0x00,0x00,0x20,0x01,0x00,0x00,0x20,0x01,0x00,0x00,0x20,
 0x01,0x00,0x00,0x20,0x01,0x00,0x00,0x20,0x01,0x00,0x00,0x20,0xff,0xff,0xff,
 0x3f,0xff,0xff,0xff,0x3f };
